<svg xmlns="http://www.w3.org/2000/svg" width="100%" height="100%" xmlns:v="https://vecta.io/nano"><path d="M300 0C134.4 0 0 134.4 0 300s134.4 300 300 300 300-134.4 300-300S465.6 0 300 0zm-14.158 24.872c.169-.009.341.008.51 0l1.276 20.344c-17.303.825-34.145 3.348-50.383 7.462l5.038 19.834c-42.622 10.796-80.585 33.241-110.332 63.775l-14.605-14.286c-11.878 12.186-22.498 25.572-31.76 39.923l-17.092-11.288C115.176 78.46 194.69 29.497 285.842 24.872zm27.806 0c91.363 4.469 171.09 53.454 217.857 125.765l-17.092 11.288c-9.242-14.316-19.851-27.699-31.696-39.86l-14.605 14.222c-29.751-30.55-67.759-52.976-110.395-63.775l5.038-19.834c-16.238-4.113-33.079-6.637-50.383-7.462l1.275-20.344zM300 114.796c8.673-.02 17.347.51 24.49 1.531l-11.161 92.857c23.459 3.421 44.028 15.699 58.227 33.355l74.49-55.867c9.048 11.272 19.306 28.955 24.681 42.347l-85.587 36.607A91.35 91.35 0 0 1 391.837 300c0 11.72-2.179 22.919-6.186 33.227l84.885 36.288c-5.238 13.472-15.388 31.123-24.298 42.474l-73.98-55.357c-14.18 18.059-34.984 30.67-58.737 34.184l10.969 91.327c-14.286 2.2-34.694 2.168-48.98.128l10.969-91.454c-23.77-3.516-44.556-16.167-58.737-34.247l-73.788 55.357c-9.048-11.272-19.306-28.955-24.681-42.347l85.077-36.416c-3.994-10.293-6.186-21.465-6.186-33.163 0-12.186 2.38-23.795 6.696-34.439l-85.395-36.48c5.238-13.472 15.388-31.123 24.298-42.474l74.681 55.931c14.199-17.656 34.768-29.934 58.227-33.355l-11.161-92.73c7.143-1.1 15.816-1.638 24.49-1.658zM54.847 174.234l18.367 9.056c-7.747 15.018-14.081 30.875-18.75 47.449l19.643 5.548A234.56 234.56 0 0 0 65.306 300c0 22.105 3.08 43.493 8.801 63.775l-19.643 5.548c4.666 16.548 11.013 32.39 18.75 47.385l-18.367 9.056C35.449 388.054 24.49 345.3 24.49 300s10.959-88.054 30.357-125.765zm490.306 0C564.551 211.946 575.51 254.699 575.51 300s-10.959 88.054-30.357 125.765l-18.367-9.056c7.74-15 14.082-30.832 18.75-47.385l-19.643-5.548c5.721-20.283 8.801-41.67 8.801-63.775a234.56 234.56 0 0 0-8.801-63.712l19.643-5.548c-4.668-16.57-11.006-32.434-18.75-47.449l18.367-9.056zM85.587 438.074c9.266 14.351 19.881 27.737 31.76 39.923l14.605-14.286c29.746 30.534 67.71 52.98 110.332 63.776l-5.038 19.834c16.238 4.113 33.079 6.637 50.383 7.462l-1.276 20.344c-91.363-4.469-171.09-53.454-217.857-125.765l17.092-11.288zm428.89 0l17.028 11.288c-46.767 72.311-126.494 121.296-217.857 125.765l-1.275-20.344c17.303-.825 34.145-3.348 50.383-7.462l-5.038-19.834c42.637-10.8 80.645-33.225 110.395-63.776l14.605 14.222c11.86-12.176 22.507-25.525 31.76-39.86z"/></svg>