<svg xmlns="http://www.w3.org/2000/svg" width="1344.314" height="1344.314" viewBox="0 0 355.683 355.683" xmlns:v="https://vecta.io/nano"><path d="M172.993 228.084l-19.333-28.217 12.408 34.126-38.467 5.584 38.467 5.584-14.891 29.162 21.203-22.29-1.348 52.693s-94.929-44.053-42.191-141.466c0 0-65.768-72.594-6.205-117.267 0 0-101.754 61.425-37.227 166.905 0 0-53.359-52.119-25.439-104.859 0 0-48.395 68.252 10.548 143.329 0 0-16.131-9.929-30.402-47.776 0 0 10.409 112.672 136.468 114.151.42.015.839.012 1.256.011l1.256.004c126.058-1.493 136.468-114.165 136.468-114.165-14.27 37.848-30.402 47.776-30.402 47.776 58.943-75.077 10.548-143.329 10.548-143.329 27.92 52.741-25.439 104.859-25.439 104.859 64.527-105.479-37.227-166.905-37.227-166.905 59.564 44.673-6.205 117.267-6.205 117.267 52.738 97.413-42.19 141.466-42.19 141.466l-1.348-52.693 21.203 22.29-14.891-29.162 38.467-5.584-38.467-5.584 12.408-34.126-19.333 28.217-4.826-188.664-.006-1.494s0 .001-.016.618l-.016-.618-.007 1.494-4.826 188.664" fill-rule="evenodd"/><path d="M177.842.042C79.646.042.042 79.644.042 177.841s79.604 177.8 177.8 177.8 177.798-79.604 177.798-177.8S276.038.042 177.842.042z" fill="none" stroke="#000" stroke-miterlimit="10" stroke-width=".085"/><path d="M177.842.042C79.648.042.042 79.646.042 177.841s79.605 177.8 177.8 177.8 177.798-79.605 177.798-177.8S276.037.042 177.842.042zm0 21.3c86.43 0 156.498 70.068 156.498 156.498s-70.068 156.498-156.498 156.498S21.344 264.271 21.344 177.841 91.412 21.343 177.842 21.343" fill-rule="evenodd"/></svg>