<svg xmlns="http://www.w3.org/2000/svg" width="30" height="30" viewBox="0 0 685.9 792" xmlns:v="https://vecta.io/nano"><defs><clipPath id="A"><path d="M0 0h685.898v792H0zm0 0"/></clipPath></defs><g clip-path="url(#A)"><path d="M343 0l159.004 91.801-16.937 29.332L343 39.113l-142.066 82.02-16.937-29.332zm183.945 106.199l159 91.801v183.602h-33.871V217.555l-142.066-82.02zm159 304.199V594l-159 91.801-16.938-29.336 142.066-82.02V410.398zM502.004 700.199L343 792l-159.004-91.801 16.938-29.332L343 752.887l142.066-82.02zm-342.949-14.398L.055 594V410.398h33.871v164.047l142.066 82.02zm-159-304.199V198l159-91.801 16.938 29.336-142.066 82.02v164.047zM320.707 280.52l-66.57 38.434v-.039L133.313 230.32l49.5-29.301-8.922-16.105-101.273 54.98 3.023 115.195 18.406-.328.625-57.516 137.141 60.336.031-.016v76.867l-.031-.016-137.141 60.336-.625-57.516-18.406-.328-3.023 115.195 101.273 54.98 8.922-16.105-49.5-29.301 120.824-88.594v-.039l66.57 38.434-.031.02-16.316 148.938-50.121-28.219-9.488 15.777L343 708.215l98.25-60.219-9.488-15.777-50.121 28.219L365.324 511.5l-.031-.02 66.57-38.434v.039l120.824 88.594-49.5 29.301 8.922 16.105 101.273-54.98-3.023-115.195-18.406.328-.625 57.516-137.141-60.336-.031.016v-76.867l.031.016 137.141-60.336.625 57.516 18.406.328 3.023-115.195-101.273-54.98-8.922 16.105 49.5 29.301-120.824 88.594v.039l-66.57-38.434.031-.02 16.316-148.937 50.121 28.219 9.488-15.777L343 83.785l-98.25 60.219 9.488 15.777 50.121-28.219L320.676 280.5zm0 0" fill-rule="evenodd" fill="red"/></g></svg>