<svg xmlns="http://www.w3.org/2000/svg" viewBox="0 0 512 512" xmlns:v="https://vecta.io/nano"><path d="M447.4 86.9v-.1c-2.7-6-8.8-9.9-15.4-9.9-6.7 0-12.8 3.9-15.4 10l-19.2 44.4v17.8l-5.4 5-72.5-141.6-.3-.5c-4.4-7.4-12.6-12-21.4-12h-25.2c-9 0-16.3 7.2-16.3 16v58.8h-22.1V16c0-8.8-7.3-16-16.3-16h-25.2c-8.7 0-16.9 4.6-21.4 12l-.1.2L67.6 214.4c-4.8 7.9-9 16.2-12.7 24.7l-.2.4h0c-.1.2-.2.4-.3.7-1.6 3.9-1.6 8.3 0 12.2 1.7 4 4.8 7.1 8.9 8.7l46.9 18.6-47.7-3c-4.5-.3-9.1 1.3-12.4 4.4-3.2 3-5 7.2-5 11.5v42.9c0 4.3 1.8 8.5 5 11.5 3.1 2.9 7.1 4.5 11.3 4.5h1l47.1-3-46.4 18.4c-4.1 1.6-7.2 4.7-8.9 8.7-1.6 3.9-1.6 8.2 0 12.2 15.2 36.3 40.9 67.3 74.5 89.5C163.3 500 203.4 512 245.1 512h0 .2.1.2 0c41.7 0 81.8-12 116.1-34.7 33.6-22.2 59.4-53.2 74.5-89.5 1.6-3.9 1.6-8.3 0-12.2-1.7-4-4.8-7.1-8.9-8.7l-46.4-18.4 47.3 3.1h1c4.2 0 8.3-1.6 11.3-4.5 3.2-3 5-7.2 5-11.5v-42.9c0-4.3-1.8-8.5-5-11.5-3.3-3.1-7.8-4.7-12.4-4.4l-47.8 3.1 47-18.7c4.1-1.6 7.2-4.7 8.9-8.7 1.6-3.9 1.6-8.2 0-12.2-2.9-6.8-6.3-13.8-10.2-20.8l33.6-22.1c4.5-3 7.2-8 7.2-13.4v-52.7l-19.4-44.4zm-16.2 6.4c.1-.2.4-.4.8-.4.3 0 .7.2.8.5l13.7 31.6h-29l13.7-31.7zm-43.4 201.9v37.6l-94.7-6.1c1.2-4.1 1.8-8.3 1.8-12.7v-.7h0v-.1c0-1.5-.1-3-.3-4.5l-.5-7.5 93.7-6zm-190.3 31.6l-94.6 6v-37.7l93.6 6-.5 7.5c-.2 1.5-.3 3-.3 4.5v.1h0v.7c0 4.5.6 8.8 1.8 12.9zm28.3-235v-.5-.4s.1-.1.3-.1h38.4c.2 0 .3.1.3.1v.4l11.8 185.5C268 270 257.1 266 245.3 266s-22.7 4-31.2 10.7l11.7-184.9zm-13.9 218.4c2-15.9 16.2-28.2 33.4-28.2s31.4 12.3 33.4 28.2l.2 3.8c0 17.6-15.1 32-33.6 32s-33.6-14.3-33.6-32l.2-3.8zm75.8-110.7c12.7 4.4 24.8 10.7 35.4 18.6l-32.3 30.1-3.1-48.7zm47.3 7.6c-14.3-11.1-30.8-19.6-48.4-24.7l-3-46.6c31.5 6.1 60.6 19.9 85.1 40L335 207.1zM272.7 16h25.2c3.1 0 5.9 1.5 7.5 4l73.4 143.4c-27.5-22.7-60.6-37.9-96.2-44.1l-1.8-28.1c.1-4.1-1.4-8.2-4.3-11.2-1.2-1.3-2.6-2.3-4.1-3.2V16.1c0 0 .1-.1.3-.1zm-87.4 4c1.6-2.5 4.4-4 7.5-4H218c.2 0 .3.1.3.1v60.7c-1.6.8-3 1.9-4.2 3.2-2.9 3-4.4 7.1-4.3 11.2l-1.8 28.1c-33.5 5.9-65.2 19.8-91.8 40.6l-4.5 3.6L185.3 20zm-116 226.2c0-.1 0-.1.1-.2l12.2-23.8c27-44.2 72.8-76.1 125.4-86.4l-3 46.7c-21.1 6.2-40.7 17.2-56.8 32-15 13.7-26.7 30.5-34.2 48.9l-43.7-17.2h0zm58.5 23.2c6.7-16.2 17-30.9 30.2-43 12.9-11.8 28.2-20.9 44.9-26.7l-5.4 85.5L162 283l-34.2-13.6zm-66.1 66.1c-.2 0-.3-.1-.4-.1v-42.7c.1-.1.2-.1.4-.1l25.2 1.6v39.7l-25.2 1.6zm359.6 46.2c-13.9 33.3-37.6 61.8-68.5 82.2-31.7 21-68.8 32-107.4 32h-.1c-38.6 0-75.7-11.1-107.4-32-30.9-20.5-54.6-48.9-68.5-82.2l43.5-17.3c21.4 52.3 73.5 86.8 132.5 86.9h0 .1.1 0c58.9-.1 111.1-34.6 132.4-86.9l43.3 17.3c-.1 0-.1 0 0 0zm-58.2-23.1c-19 46.2-65.3 76.7-117.7 76.8-52.4 0-98.7-30.6-117.7-76.8l33.7-13.4 43.9-2.8c9 11.9 23.6 19.6 40 19.6s31-7.8 40-19.7l43.6 2.8 34.2 13.5zm65.9-66c.2 0 .3.1.4.1v42.7c-.1.1-.2.1-.4.1l-25.2-1.6v-39.7l25.2-1.6zm-7.7-46.4L330 282.4l82.5-54.2c3.3 6 6.3 12.1 8.8 18zM296.9 285l-3.8.2-1-16.4L413.4 156v-15h37.3v42.9L296.9 285z" fill="#555e6b"/></svg>