<svg xmlns="http://www.w3.org/2000/svg" viewBox="0 0 512 512" fill="#555e6b" xmlns:v="https://vecta.io/nano"><path d="M489.5 81.5l-78.8-28.7c-9.6-3.5-20.1-.4-26.4 7-2.8-.3-5.5-.5-8.1-.5h-2.9 0c-46.2.5-70.4 40.9-70.4 80.7a220.68 220.68 0 0 0 .3 11.5c.5 13.5.9 27.6-4.4 35.5-.6.9-1.2 1.8-1.9 2.7-13.3-3.3-27-4.9-40.9-4.9s-27.7 1.7-40.9 4.9c-.7-.9-1.3-1.8-1.9-2.7-5.3-8-4.8-22-4.3-35.5l.3-11.5c0-39.8-24.2-80.2-70.4-80.7h-2.9c-2.6 0-5.3.2-8.1.6-6.3-7.4-16.8-10.5-26.4-7l-79 28.6c-6 2.2-10.8 6.6-13.6 12.4-2.7 5.8-3 12.3-.8 18.4l11.6 31.9c2.2 6 6.6 10.8 12.4 13.6 3.2 1.5 6.7 2.3 10.2 2.3 2.8 0 5.5-.5 8.2-1.4l79-28.7c6-2.2 10.9-6.6 13.6-12.4.4-.9.8-1.9 1.1-2.8 4.3 3.9 5.2 12 5.2 18.5v2.8c0 24.4 0 57 10.7 78.6-1.7 1.2-3.5 2.4-5.2 3.7-29.5 21.8-50.9 51.9-61.7 87l-16.8 54.7c-7.4 23.9-3.1 49.1 11.8 69.3s37.8 31.7 62.8 31.7h210.4c25 0 47.9-11.6 62.8-31.7 14.8-20.1 19.1-45.4 11.8-69.2l-17-55.2c-10.8-35.1-32.1-65.2-61.7-87a97.38 97.38 0 0 0-5.2-3.7c10.8-21.6 10.7-54.2 10.7-78.6v-2.8c0-6.4 1-14.6 5.2-18.5.3 1 .7 1.9 1.1 2.8 2.7 5.8 7.5 10.3 13.6 12.4l78.9 28.7c2.7 1 5.4 1.4 8.2 1.4 3.5 0 6.9-.8 10.2-2.3 5.8-2.7 10.2-7.5 12.4-13.5l11.6-31.9c4.5-12.2-1.9-26-14.4-30.5zm-361.1 29.2c-.9 1.9-2.5 3.4-4.5 4.1l-79 28.7c-4.2 1.5-8.8-.6-10.3-4.8L23 106.8c-.7-2-.6-4.2.3-6.1s2.5-3.4 4.5-4.1l78.9-28.7c.9-.3 1.8-.5 2.7-.5 3.3 0 6.4 2 7.5 5.3l11.6 32c.8 1.9.8 4-.1 6zm36.8 25.1V133c0-16.3-4.8-27.5-14.4-33.3a23.3 23.3 0 0 0-8.1-3l-7.8-21.5h.9 2c17.2 0 31.6 7 41.6 20.3 8.7 11.7 13.7 27.9 13.7 44.4 0 3.5-.1 7.1-.3 10.9-.5 15.5-1 31.5 6.2 43.6-8.8 3.1-17.3 6.9-25.4 11.5-8.4-18.2-8.4-47.9-8.4-70.1zm-.2 308.9c3.6-13.8 16.1-24 31-24h120c14.9 0 27.4 10.2 31 24H165zm238.7-135l16.8 54.7c5.9 19 2.5 39-9.3 55-11.4 15.5-28.7 24.5-47.8 25.1-3.8-22.6-23.6-39.9-47.3-39.9H196c-23.7 0-43.5 17.3-47.3 39.9-19.1-.6-36.4-9.7-47.8-25.1-11.8-16-15.2-36.1-9.3-55l16.8-54.7c9.8-31.8 29.1-59.1 55.9-78.8 26.8-19.8 58.5-30.2 91.8-30.2s65 10.4 91.8 30.2c26.6 19.8 46 47 55.8 78.8zm-42.5-210c-9.5 5.7-14.4 16.9-14.4 33.3v2.8c0 22.3 0 51.9-8.4 70.1-8.2-4.5-16.7-8.4-25.5-11.5 7.2-12.1 6.7-28.1 6.2-43.6l-.3-10.9c0-16.5 5-32.6 13.7-44.4 9.9-13.3 24.3-20.3 41.6-20.3h2 .9l-7.8 21.5a28.64 28.64 0 0 0-8 3zm127.7 7.1l-11.6 31.9c-.7 2-2.2 3.6-4.1 4.5s-4.1 1-6.1.3l-78.9-28.7h0c-2-.7-3.6-2.2-4.5-4.1s-1-4.1-.2-6.1l11.5-32c.7-2 2.2-3.6 4.1-4.5 1.1-.5 2.3-.8 3.4-.8.9 0 1.8.2 2.7.5L484 96.5c4.2 1.5 6.4 6.1 4.9 10.3zM334.7 264.1c-3.1-2.8-7.6-3.2-11.1-.8-24.6 16.6-82.9 56.1-91.2 64.3-6.1 6-9.4 14-9.4 22.5 0 8.6 3.3 16.7 9.4 22.7 6 6.1 14 9.4 22.5 9.4h.1c8.5 0 16.6-3.3 22.6-9.4h0c2.2-2.2 9-9.1 58.8-97.7 2.1-3.7 1.4-8.2-1.7-11zm-68.4 97.5c-3 3-7 4.7-11.3 4.7-4.2 0-8.2-1.7-11.2-4.7s-4.7-7.1-4.7-11.4c0-4.2 1.7-8.2 4.7-11.2 4.1-4.1 28.3-21.3 64-45.7-32.5 57-39.9 66.7-41.5 68.3zm77.6-50.5c-1.6-4.1-6.2-6.2-10.3-4.6s-6.2 6.2-4.6 10.3c2.7 7 4.1 14.3 4.1 21.7v3.9c0 4.4 3.6 8 8 8 .4 0 .8 0 1.2-.1H361c4.4 0 8-3.6 8-8s-3.6-8-8-8h-12.1c-.5-7.8-2.1-15.6-5-23.2zm-64.1-38.4c4.2 1.3 8.7-1 10-5.2s-1-8.7-5.2-10c-6.7-2.1-13.6-3.4-20.6-4v-12.3c0-4.4-3.6-8-8-8s-8 3.6-8 8v12.3c-31.8 2.7-60.4 21-76 49.2-5.3 9.5-8.3 20.4-8.9 31.8H151c-4.4 0-8 3.6-8 8s3.6 8 8 8h20c4.4 0 8-3.6 8-8v-3.9c0-10.1 2.4-19.8 7-28.1 14.1-25.5 40.9-41.3 70-41.3 8.1-.1 16.1 1.1 23.8 3.5z"/></svg>