<svg xmlns="http://www.w3.org/2000/svg" width="100%" height="100%" viewBox="0 0 1251.5 403.2" xmlns:v="https://vecta.io/nano"><path d="M393.7 7.2c1.8 1.7 1.5 3.9 1.4 6.1 1.6.7 3.2.4 4.8.4 4.6-.1 5.1.7 4.9 4.9v7h316.5l.1-2.4c.1-2.4.8-3.1 3.3-3.1h13c2.3 0 3 .7 3.1 3v5.6a25.35 25.35 0 0 0 2.6.1h15.4c3.3 0 3.9.6 4 3.8 0 .5.1.9.1 1.7h2.9 38.4c4 0 5 1.1 4.6 5-.3 2.5-1.1 3.3-3.7 3.3H766h-3c0 .7-.1 1.3-.1 1.8-.1 2.2-.9 3-3.1 3h-13.4-5.5v6.1c0 2.6-.8 3.4-3.5 3.5h-11.8c-3.3 0-3.8-.5-4.1-3.9 0-.2-.1-.4-.2-.8H404.9l-.1 2.5v3.8c-.1 2-1 2.9-3 2.9h-6.5v3.1c-.1 2.5-.9 3.3-3.3 3.3h-20.2-3v24.8c.1.1.1.2.2.3s.1.1.2.1l1.2.3 45.5 2.1c.4 0 .8-.1 1.2-.1 1.5-4.3 3.6-8.2 6.9-11.4 4.8-4.5 10.4-7.2 17-7.4 3.9-.1 7.9-.1 11.7.4 9.3 1.3 15.4 6.9 18.9 15.5 1.4 3.4 2 6.9 2 10.5v7.2c0 .7.1 1.4.1 2.2 8.2-.8 16.2-2.2 23.8-4.8 1.3-.4 2.3-1.6 3.3-2.6 1.4-1.4 2.6-3 3.9-4.6 3.4-4.3 7.8-6.3 13.3-6.5 8.7-.4 17.4-.4 26.1.2 9.3.6 18.6 1.4 27.9 2.3 14.3 1.4 28.5 3.8 42.6 6.8l66.2 13.7 33.6 6.8c2.5.5 5.1.6 7.6.8l45.2 3.3 45.2 3.1 47.1 3.2 41.2 2.6 42.1 2.7 35.4 2.1 36.4 2.2 29 1.6 33 1.8 26.1 1h.7c4.2 1.7 8.5.7 12.8.8 7.6.2 15.2-.1 22.8.1 4.8.1 9.6.3 14.4.8 6.4.8 12.8 1.9 19.2 3.1 10.3 1.8 20.6 3.9 30.5 7.2 13.1 4.4 25.1 10.7 36.1 19 1 .8 1.9 1.7 2.9 2.5 1.6 1.3 2.9 2.9 3.7 4.9v.5c-.6.9-.8 2.1-2.1 2.4-.3.1-.6.5-.9.8-6.5 8.3-15 14.1-24.3 18.8-13.4 6.9-27.7 11.2-42.3 14.5-8 1.8-16.1 3.5-24.4 3.8l-26.8.8-52.3.4c-2.2 0-4.4-.4-6.6.5-1.5.6-3.5-1.1-4-3-.2-.6-.2-1.2-.3-1.8-1.6 0-3.1-.1-4.6 0l-49.7 3.6-44 3.1-50.5 3.7-44.5 3.1-44.2 3.2-38.5 2.6-38.7 2.7-33 2.1c-8.9.5-17.8.5-26.6 1.6-6.5.8-12.9.7-19.3.9-6.4.3-12.8.2-19.2.3l-31.2.5-34.3.5-37.4.5-12.5.3c-.9 0-1.9.3-2.7.7l-107.6 53.9c-2.4 1.2-4.7 1.4-7.1 1.5l-26.1.7-19.9.6c-.5 0-.9.1-1.5.2v24.8c.9 0 1.7.1 2.5.1h19.7 1.7c2.3.1 3 .8 3.1 3v3.3h6c2.8 0 3.5.8 3.6 3.6v5.8h318.1c.1-.5.2-1 .2-1.6.2-2.3.8-3 3.1-3h9.4 3.8c2.2.1 3 .8 3.1 3.1.1 2.1 0 4.1 0 6.3a25.35 25.35 0 0 0 2.6.1h15.6c3.4 0 3.7.4 3.9 3.9 0 .2.1.4.3.9h2.5H807c.6 0 1.4-.2 1.9.1.7.3 1.8.9 1.9 1.5.3 1.6.3 3.3.1 5-.1 1-1.1 1.6-2.1 1.7-.7.1-1.4 0-2.2 0h-38.9-2.7c0 1-.1 1.8-.1 2.6-.1 1.9-.8 2.7-2.8 2.9-.8.1-1.6 0-2.4 0h-13.9-2.9v5.2c-.1 2.7-.8 3.5-3.6 3.6h-11.8c-3.3 0-3.9-.6-4-3.9 0-.5-.1-.9-.1-1.4-1.7-.5-314.3-.7-317.9-.1v6.8c0 4.6-.3 4.9-4.9 4.8h-4.7c-.6 2.2.4 4.6-1.5 6.3H379c-.5-1-1.1-1.9-1.7-3.1h-2.7l-52.5.1c-11 0-21.9-.1-32.9-.1h-50.4c-3 0-3.6-.6-3.8-3.6-.1-1.6-.3-3.1-.5-4.8h-2.9-27.3c-1.7 0-2.9-.5-3.7-2.1-.7-1.3-1.6-2.4-2.2-3.7-.8-1.8-2.1-2.3-4-2.2-4.1.2-8.3.2-12.5.3-1.6 0-3.3.1-5.1.2v3.1c-.1 2.4-1 3.3-3.4 3.3h-11.5c-1.8 0-3.7 0-5.5-.1-2.5-.2-3-.8-3-3.3v-31.7c0-2.5.8-3.4 3.3-3.4l17 .2c2.3 0 3 .9 3.1 3.3v2.8h15.5c-.5-.8-.8-1.3-1.2-1.8L168 318.4c-.9-1.3-1.9-1.6-3.4-1.6H77.8c-.8 0-1.6.1-2.5.1-.1.8-.1 1.5-.1 2.2-.1 1.6-.6 2.2-2.3 2.6-.5.1-.9.2-1.4.2L42.3 326c-2.8.4-3.8-.4-3.9-3.3v-4.5h-2.9-25c-1.8 0-3.3-.2-4.6-1.5v-34.6c.1-.7.4-1.3.4-2l.3-18.7c0-3.1.7-3.8 3.8-3.8h25.2 2.6v-4.3c0-3.1.9-3.9 4-3.5l20.4 2.7 9 1.3c2.8.4 3.3 1 3.4 3.7 0 .5.1.9.1 1.5h34.5v-2.8V237c0-2.3.8-3 3-3.1h1.7 28.8 2.9v-15.5c-.9 0-1.7-.1-2.5-.1h-17.3c-3.3 0-3.8-.4-3.8-3.7v-24.7c0-3.3 1.4-4.6 4.7-4.6h17 2.6v-15.5H144h-29.8c-3 0-3.7-.7-3.7-3.7v-19-2.6H76.3c-.1.5-.2.9-.2 1.2-.2 3.2-.5 3.5-3.6 4l-29.4 4.1c-2.5.3-3.6-.6-3.6-3.1V146h-2.9c-8.5 0-17 0-25.4-.1-2.4 0-3.1-.7-3.2-3.1v-7.9l-.2-31-.1-15.6c0-2.1.8-2.9 2.8-3.1.6-.1 1.3 0 1.9 0h24.5c.8 0 1.7-.1 2.7-.1v-5c0-1.2.5-2.3 1.7-2.6.8-.2 1.7-.1 2.6 0l15.7 2.2 13.8 2c2.2.3 2.7 1 2.9 3.1 0 .6.1 1.3.2 2 .7 0 1.4.1 2 .1h87.1c1.3 0 2.2-.3 3-1.5L191.9 54c.4-.5.6-1 1-1.6-4-.5-13.8-.3-15.5.3v3.1c-.1 1.8-.8 2.7-2.6 2.7-6 .1-12 .1-18 0-1.6 0-2.3-.8-2.6-2.3-.1-.6-.1-1.3-.1-1.9v-30-1.4c.2-2 .9-2.8 2.9-2.8h17.5c2.1 0 2.8.8 2.8 3v3c.5.2.7.3.9.3l18 .5c1 0 1.6-.4 2.1-1.3.8-1.4 1.7-2.7 2.4-4.1 1-2.1 2.6-2.7 4.8-2.7h26.6 2.7c.2-1.4.4-2.6.4-3.8.1-4.9 1.6-4.6 5.1-4.6l133.9.1h2.6a117.16 117.16 0 0 0 2.1-3.4l14.8.1zm705.5 162.2h-3.2l-105.3.1-80.6.2-64 .2-76.5.1-43.4.1-74.4.2h-48.7l-96.9.2h-2.3c-.5 3-.4 29.3.1 31.1h559.7c.1-.8.2-1.5.2-2.2.1-1.3.7-2.2 1.8-2.9l24.8-15.9c1.9-1.2 3.7-2.6 5.2-4.2 1.7-2 3-4.1 3.5-7zm-35.7 37.7c-.4-.2-.5-.3-.6-.3-.8-.1-1.6-.1-2.4-.1l-390.8.2c-.1 0-.1.1-.2.1-.1.1-.1.1-.3.4v2.4 15.4c-.1 4.6-3.4 8-8 8.1H659 521h-3.2v9.3c3.4 1.3 6.9 2.5 10.2 3.9 2.3 1 4.7 1.4 7.2 1.3l22.8-.4 37.6-.5 32.1-.5 32.8-.5 15.1-.3c2.8-.1 5.5-.6 8.3-.8l28.2-1.5 40.2-2.7 38.8-2.6 37.8-2.7 38.3-2.6 44-3.2 44.2-3.1 50-3.6 50.2-3.5 7.3-.6c.4-4.1.5-7.8.6-11.6zm41.9-52.6c0 3.6.2 7 0 10.3-.6 8.8-4.7 15.5-12.4 20.1s-15.1 9.6-22.7 14.4c-1 .6-1.4 1.4-1.4 2.5l-.4 13.9c-.1 2.4 0 4.9 0 7.5.5.1 1.1.2 1.7.2l36.9-.2 31.4-.5c10.3-.1 20.6-.8 30.7-2.9 13.9-2.9 27.6-6.6 40.7-12.4 8.4-3.7 16.3-8.1 23.1-14.3 2.2-2 4.4-4.1 6.1-6.9-1.7-1.4-3.3-2.9-5.1-4.1-12.1-8.6-25.2-15.2-39.6-18.8-8.9-2.2-17.9-3.9-26.9-5.9-6.9-1.5-13.9-2.3-20.9-2.8-13.2-.9-26.4-.5-39.5-.3-.4 0-.9.1-1.7.2zM362.8 58.6h-3.1-150.9c-.5 0-1 .1-1.4 0-1.3-.2-2.1.4-2.8 1.4l-18.9 25.1-56.1 77.9c-.4.5-.6 1-1.1 1.9h2.7H149c2.3 0 3.2.8 3.2 2.9v19.9c0 2.1-.9 2.9-2.9 3h-1.7-16.3c-.8 0-1.7.1-2.6.1v9.3h234.2l-.1-141.5zm0 146.9H128.5c-.2 2.7-.2 5.1 0 7.9h2.9H148c2.6 0 3.3.8 3.3 3.3v19c0 2.7-.7 3.4-3.4 3.4h-17.8-2.7c.6 1 1 1.7 1.5 2.3l74.2 101.2c1.4 1.8 2.8 2.4 5 2.4h117.6 34.5c.9 0 1.8-.1 2.7-.1l-.1-139.4zM239.9 387.9l123.3-.1v-37.7H360 211.8c-1.7 0-3.7-.4-5.2.3-1.4.6-2.3 2.4-3.2 3.8-1.2 1.8-2.8 2.4-4.9 2.3-6.3-.1-12.6 0-18.9 0h-2.8a384.87 384.87 0 0 0 0 15.2h6.6l14.9-.2c1.2 0 2 .5 2.5 1.5.8 1.5 1.8 2.8 2.6 4.3.8 1.8 2 2.3 4 2.3h28.3c3.2 0 3.7.5 4 3.7 0 1.3.1 2.7.2 4.6zM177.4 47c.7.1 1.2.1 1.8.1h18.7c4.8 0 3.9-.4 6.8 3.2.4.5.9 1 1.2 1.5.8 1.4 1.9 1.7 3.4 1.7h151.4c.8 0 1.5-.1 2.4-.2.2-12.6.5-25.1-.1-37.8h-2.5l-43.2-.2-17 .1h-57.1c-.9 0-1.8.1-2.8.2-.2 2.1-.3 3.9-.6 5.7-.2 1.7-1 2.4-2.7 2.5h-1.9-28.1c-1.3 0-2.2.3-2.9 1.6-.7 1.5-1.7 2.9-2.5 4.4-.8 1.6-2 2.3-3.9 2.2l-18-.5h-2.4V47zm233.7 113v1.8l-.2 29.7v2.2c-.2 1.5-1.1 2.3-2.5 2.4-.6.1-1.3 0-1.9 0h-35-3v11.7h2.7 35.7c.7 0 1.4 0 2.2.1 1.3.1 2 .9 2.2 2.1.1.7.1 1.4.1 2.2v29c0 .9.1 1.8.1 2.9l13.7-1.4 25.3-2.7 16.4-1.8c1-.1 1.8-.4 2.5-1.2l12.1-13.3c.7-.8 1.2-1.6 1.2-2.7v-39.4c0-1-.3-1.8-1.1-2.5l-15.4-15.4c-.8-.8-1.6-1.2-2.7-1.2l-12.4-.7-32.8-1.8c-2.5-.1-4.7 0-7.2 0zm532.6 4.5v-19.6c-.7-.1-1.2-.3-1.8-.3l-25.6-1.5-26.5-1.7-26.3-1.7-26.3-1.7-23.2-1.6c-1.3-.1-2.2.2-3.1 1.3-1.8 2.3-3.8 4.4-5.5 6.7-1.4 1.9-3 2.5-5.3 2.5-17.7-.1-35.3 0-53 0-.8 0-1.7.1-2.5.1v17.6l199.1-.1zM702 127.2c0-.1-.1-.3-.1-.4l-16.7-3.4-73.2-15.2c-15.9-3.4-31.9-5.6-48.1-7.2-.6-.1-1.5-.2-1.8.1-1.6 1.6-3.7 1.8-5.6 2.5-5.6 2-8.6 6-8.6 11.9V139c0 .6.1 1.2.2 1.9.5.1.9.2 1.3.2l21.6.9c6.6.1 13.3-.1 19.9-.4 17.4-.7 34.8-2.1 52.1-4.2 18.9-2.2 37.7-5.3 56.2-9.3.8-.3 1.8-.6 2.8-.9zM498.2 243.1v-36.3h-10.4c0 .9-.1 1.7-.1 2.5v9.8c-.1 6.5.8 4.4-3.6 9.3l-11 12.1c-1.2 1.4-2.3 2.6-4.4 2.8-8 .7-15.9 1.6-23.8 2.5l-29.3 3.1c-1.4.1-2.8.4-4.2.6v29.9c1-.3 1.7-.5 2.5-.8l22.3-8.1c.8-.3 1.7-.6 2.5-.7 1.3-.1 2.2.6 2.5 1.7.3 1.2-.1 2.3-1.1 2.9-.5.3-1.2.5-1.8.7l-11.9 4.3-14.8 5.4v19h6.8c.5 0 1.1-.3 1.6-.5l102.9-51.5 1.5-.9c-.2-.2-.3-.4-.4-.4-1.3-.5-2.7-1-4-1.6-4.2-1.9-8.5-3.1-13.2-2.1-.6.1-1.3 0-1.9.1-1.5.3-3 .5-4.4 1l-44.8 18.9a27.68 27.68 0 0 1-1.6.6c-1.7.6-3.1.1-3.6-1.2-.6-1.4 0-2.7 1.6-3.5.4-.2.7-.3 1.1-.5l21.9-9.2 23.1-9.9zM75.3 264.4v47c3.2.5 85.4.3 87.2-.2l-3.1-4.3-29.9-40.3c-1.2-1.6-2.4-2.2-4.3-2.2H89.7 75.3zm1.1-125.2c.7 0 1.2.1 1.7.1H127c1.6 0 2.3-.8 3-1.8l32-43.4c.4-.6.8-1.1 1.2-1.8-2.2-.6-84.8-.5-86.9 0l.1 46.9zm441.5 88.9h3 137.7 1.7c2.7-.1 3.6-1 3.6-3.6v-16.1c0-.5-.1-1.1-.2-1.6H517.9v21.3zM725 134.8c-.9.4-1.5.7-2.1 1-3.5 1.5-7 3.1-10.6 4.3-13.5 4.6-27.5 7.2-41.6 9.1-12.7 1.7-25.5 3.1-38.3 4.3-8.8.9-17.7 1.5-26.5 1.8-14.5.5-28.9.7-43.4.8h-55.7c-1 0-2 .1-3 .2v8.7h3.3l115.9-.1 99.3-.2h1.2l1.6-.3-.1-29.6zM404.8 30.9c0 5.4-.1 10.7.1 16H557v-16H404.8zm.6 341.4c.3.2.4.3.5.3.3.1.6.1.9.1h151.9c.3 0 .6-.1.9-.1.1 0 .1-.1.2-.1.1-.1.1-.1.1-.2.4-4.1.3-14-.3-15.9h-2.1l-151.9.2c-.1 0-.2.1-.2.1-.1.1-.1.1-.2.3.2 5 .2 10.2.2 15.3zM721.3 30.9H573.6c-.5 3-.4 14.4.1 16h147.6v-16zm1.9 325.9c-2.2-.5-144.5-.5-146.6 0v15.7c.4.1.8.2 1.1.2h144.2c.3 0 .6-.1.9-.2.1 0 .1-.1.2-.1.1-.1.1-.1.2-.3v-15.3zM368.5 213c-.5 3.1-.3 59.5.2 61.1h37.4V213h-37.6zm36.9-22c.6-4.1.9-59.4.4-61.4h-37c-.4 2.6-.8 59.6-.1 61.4h36.7zm543.7-45.8v19h151.3c.2-3.6.2-7 .1-10.4l-151.4-8.6zm-537.8 9.3l10.7.6 43.5 2.4c1.4.1 2.4.8 3.3 1.7l17.1 17.1c1.3 1.3 1.8 2.7 1.8 4.5-.1 6 0 12 0 18v2.6h10.6v-60.8c-29.2 0-58 .6-87-.6v14.5zm.2-19.9c.7.1 1.3.2 1.9.2l30.2.7 50.4-.1 19.7-.1c2.1 0 4.2-.1 6.7-.2-.5-.6-.8-1-1-1.2l-16-15.8c-1.4-1.3-2.8-2.6-4.1-4-.8-.8-1.5-1.1-2.6-.6-.5.2-1.1.3-1.6.5-8.8 2.4-17.8 4-26.9 4.1h-53.7c-.9 0-1.8 0-2.9.1v15.2c-.2.4-.2.8-.1 1.2zM38.2 263.3c-2.4-.5-24.7-.4-26.7.2v49.6h26.4c.7-2.1.9-46.5.3-49.8zM12.8 90.5l.4 50.1c2.6.6 24.6.5 26.3 0v-50l-26.7-.1zm490.9 60.7h3l96.1-.9c6.1-.2 12.1-.4 18.2-.9 10.1-.8 20.2-1.9 30.3-3 13.9-1.4 27.7-3.4 41.4-6.3 8.6-1.9 17.1-4.1 25.2-7.7 1.4-.6 2.8-1.4 4.4-2.2-2.5-.8-6.8-1-9-.4-17.9 4.7-36.2 8.1-54.5 10.7a693.47 693.47 0 0 1-40.7 4.5c-14.3 1.2-28.5 1.9-42.8 2-9.9.1-19.8-.1-29.7-1.2-5.2-.6-10.5-1.1-15.3-3.6-.5-.3-1.2-.3-1.9-.3l-23-1.1c-.5 0-1.1.1-1.7.2v10.2zm-.7-40.8c.2.3.3.5.4.6l18.7 18.5c3.1 3 6.4 5.8 10.2 7.9 3.2 1.8 6.6 2.4 10.5 2.7v-2.9-21.1c-.1-6.5 2.2-11.9 7.7-15.6.2-.1.2-.4.3-.5-.2-.1-.3-.2-.5-.2-11.2-.8-22.5-1.4-33.7-.5-3 .3-5.3 1.5-7.3 3.7l-6.3 7.4zm-96.9 169.2h-37.7v25.7l37.7-1.1v-24.6zm-346-133.2c-.8-20.7-.7-41 0-61.4L45 82.9v65.6l15.1-2.1zM43.8 255.3c-.3 1.5-.2 64.3.1 65.4l14.9-2.1-.5-20.6c-.1-6.8 0-13.6 0-20.4 0-6.7.6-13.5.4-20.3l-14.9-2zm324.9-131.4c2.7.5 35.6.4 37.5-.1v-23.2l-37.5-2.1v25.4zm82.6-41.8c-.4 2.5-2 3-4.1 2.9-2.2-.1-4.3-.1-6.5 0-1.9.1-3.7-.1-4.4-2.3-5.7 1.5-11.3 6.2-12.6 10.7 1.7 0 3.3-.1 4.8 0 1.8.1 2.5.9 2.6 2.8 0 2 .1 4 0 6 0 1.7-.8 2.5-2.5 2.6-1.2.1-2.4 0-3.6 0-1.3 0-2.6.1-4.1.1v4.1c0 1.2 0 2.5.1 3.8h46.9v-7.9c-.7-.1-1.1-.1-1.6-.1H461c-2.8-.1-3.5-.8-3.6-3.6v-4.6c0-2.6.9-3.4 3.5-3.3 1.6.1 3.1 0 5 0-2.8-6.3-7.5-10-14.6-11.2zm354.4 53.8l-75.2-5.3c-.5 3.1-.4 32.5.1 34.1h8.7v-2.5-16.3c0-3.6.6-4.3 4.4-4.3h1.4 53c.6 0 1.1.1 1.7 0 .6-.2 1.4-.4 1.8-.8 1.3-1.5 2.5-3 4.1-4.9zM201.2 348.4c-27.9-35.8-53.5-73-80.3-109.2h-5.3c1.5 2.9 82 110.4 83.7 111.7.6-.8 1.2-1.5 1.9-2.5zm-1.7-296.2l-83.3 112.5h4.4c.9 0 1.5-.3 2-1 1.1-1.7 2.3-3.3 3.5-4.9l74.4-102.1 1.2-1.8a41.07 41.07 0 0 1-2.2-2.7zm177.8 10.6V15.7c-3-.1-5.9-.2-8.8.1-.5 3.9-.2 43.8.3 47.1 2.7-.1 5.5-.1 8.5-.1zm0 324.8c.6-2.9.4-45.3-.1-46.9h-8.6v46.9h8.7zm12.9 3.2v-50.1h-7.3v50.1h7.3zM65.4 85.8c-.1.9-.3 1.5-.3 2l-.5 20.6.5 34.8c0 .8.2 1.5.3 2.5l5.7-.8V86.6c-1.9-.3-3.7-.6-5.7-.8zm106 292.3v-28h-12.8v28h12.8zM389.8 62.9V12.4h-3.7c-1.2 0-2.3 0-3.5.1v50.4h7.2zm-230.5-9.8c2.5.6 11.1.5 12.8-.1.5-4.9.3-26-.3-27.7h-12.5v27.8zM64 258.1c-.8 20.1-.8 39.8 0 59.8l5.8-.9c.1-.6.2-.9.2-1.2v-55.6c0-.3-.1-.6-.2-.9 0-.1-.1-.1-.1-.2l-.3-.3-5.4-.7zm448.5-17v-34.3h-8.8v34.8c3.1-.1 5.9-.3 8.8-.5zM726.8 25.3c-.6 3.1-.4 24.7.2 26.5 2.8-.1 5.6.2 8.4-.1V25.3h-8.6zm1.8 326.6c-.5 4.4-.3 24.5.3 26.3 2.8 0 5.6.1 8.5 0v-26.3h-8.8zM399.3 56.6V19h-4c-.4 4.5-.3 35.8.2 37.6h3.8zm.4 327.9v-37.3h-4.1v37.3h4.1zm359.8-23.1h-16.7v7.9c3.2.4 14.9.3 16.7-.2v-7.7zm-2.1-319.3v-8h-16.6v8h16.6zm-189.5 4.8c.5-2.8.4-14.3-.1-16.1h-5.6v16.1h5.7zm-2.6 309.6c0 5.5-.1 10.8.1 16.2 2.1-.1 3.9.3 5.7-.2v-16h-5.8zM124.7 144.6c-3.2-.2-5.9-.1-8.7-.1-.5 3-.4 9.6.2 11.5l8.5-11.4zm-9.4 103.3c-.2.1-.4.2-.5.2v5.5c0 1.9.1 3.7.1 5.5h8.9l-8.5-11.2zm296.3-147v11.9h4.2v-11.9h-4.2zm14.5-1.7c-1.3-1.1-2.8-.7-4.2-.5-.2 0-.3.5-.5.9 1.7.2 3.2.4 4.7-.4zm42.2.4c-1.6-1.2-3.9-1.2-5.6-.2 1.8.6 3.4.4 5.6.2zm-209.2 34.7h-65.5c-9.1 0-18.2-.1-27.3-.2h-1c-1.3 0-2.6-.2-3.2-1.7-.5-1.3.2-2.2.9-3.2l22.1-28.7 19.6-25.7c1.3-1.7 2.7-2.4 4.8-2.4h141.8 1.4c1.9.1 2.7 1 2.9 2.9v1.4 53.8 1.4c-.2 2-1 2.9-3.1 2.9h-11.8c-1 0-2.1-.1-3.1-.1l-54.7-.2h-24c.2 0 .2-.1.2-.2zm91.4-27.1H186.6l-16.5 21.6c4 .7 178.4 1.1 180.3.5l.1-22.1zm-.1-29.5h-3.3-128.8c-2.5 0-5 .1-7.4 0-1.3 0-2.1.4-2.8 1.4l-16.2 21.2c-.3.5-.6 1-1 1.6.6.1.9.1 1.2.1h157.1c.2 0 .5-.1.7-.1.1 0 .1-.1.2-.1.1-.1.1-.1.2-.3l.1-23.8zm-93.2 114.4h-93.8c-3.6 0-4.4-.5-4.4-4.4l-.1-40.1v-1.9c.1-2 .8-2.7 2.8-2.8h1.9H351c4.5 0 4.7.6 4.7 4.8l.1 39.8-.1 2.2c-.2 1.5-1 2.2-2.5 2.4-.7.1-1.4 0-2.2 0h-93.8zm-93.1-5.5c3.1.6 184.5.5 186.3-.1v-38.3H164.1v38.4zm94.3 82.6h1.7l55.2-.2 36.2-.2 2.2.1c1.3.2 2.1 1.1 2.2 2.4.1.6 0 1.1 0 1.7v54 1.7c-.1 1.4-.9 2.2-2.3 2.4-.7.1-1.4.1-2.2.1h-142c-2.3 0-3.8-.8-5.2-2.6l-40.8-53c-.4-.6-.9-1.1-1.4-1.7-.8-.9-.9-1.9-.4-2.9.5-.9 1.3-1.3 2.3-1.3l6.9-.1 54.7-.2h32.9v-.2zm-89.2 5.4l1.9 2.6 13.6 17.7c.9 1.2 1.8 1.7 3.4 1.7h160 2.3V274h-2.7l-19.9.1-51.3.2-30.2.2-50.4.1-24.2.1c-.6-.1-1.3-.1-2.5-.1zm181.3 27.2H190.3l1.7 2.4 15.4 20c1 1.3 2 1.8 3.6 1.8h137.2l2.4-.1-.1-24.1zm-93.5-90h93.8 1.9c2.2.1 3 .9 3.1 3.1v7.9 33.6 1.9c-.2 1.5-.9 2.3-2.4 2.5-.7.1-1.4.1-2.2.1H162.6h-1.2c-2.6-.1-3.4-.8-3.4-3.5l.1-41.5c0-3.4.7-4.1 4.1-4.1H257zm93.5 5.3c-5.2-.5-185.3-.3-187.1.3v38.3h187.1v-38.6zm100.7-119c.1 4-3.3 7.3-7.3 7.4-4 0-7.4-3.2-7.4-7.3-.1-3.9 3.3-7.4 7.3-7.4 3.9 0 7.4 3.4 7.4 7.3zm-5.2.2c.1-1.1-.8-2.2-1.9-2.3-1.2-.1-2.3.9-2.3 2.1 0 1.1 1 2.1 2.1 2.2 1 .1 2-.8 2.1-2z"/></svg>