<?xml version="1.0" encoding="UTF-8"?>
<svg width="100%" height="100%" version="1.1" viewBox="150 150 452 452" xmlns="http://www.w3.org/2000/svg">
 <g fill-rule="evenodd">
  <path d="m405.6 425.95h-1.8516v-38.848c0-19.668-2.2188-53.953-6.1094-98.633-0.84375-9.6992-1.7539-19.762-2.7266-30.109-1.9336-20.629-4.0078-41.43-6.082-61.363-0.72656-6.9766-1.3984-13.344-2.0039-18.977-0.21094-1.9727-0.39844-3.7109-0.5625-5.1992-0.097656-0.89453-0.16406-1.5039-0.19922-1.8242-0.23438-2.1758-2.3086-4.0352-4.5078-4.0352h-7.4141c-2.1875 0-4.2773 1.8672-4.5117 4.043-0.035156 0.3125-0.10156 0.92188-0.19922 1.8086-0.16406 1.4844-0.35156 3.2148-0.5625 5.1797-0.60547 5.6094-1.2773 11.957-2.0039 18.91-2.0742 19.867-4.1445 40.613-6.082 61.203-0.98828 10.547-1.918 20.801-2.7773 30.676-3.8594 44.355-6.0547 78.504-6.0547 98.32v38.848h-3.6992v-38.848c0-56.238 17.699-216.5 17.699-216.5 0.44141-4.0508 4.1211-7.3359 8.1914-7.3359h7.4141c4.082 0 7.75 3.2773 8.1875 7.3359 0 0 17.703 160.94 17.703 216.5v38.848z"/>
  <path d="m377.85 457.4c5.1094 0 9.25-4.1406 9.25-9.25 0-5.1094-4.1406-9.25-9.25-9.25-5.1094 0-9.25 4.1406-9.25 9.25 0 5.1094 4.1406 9.25 9.25 9.25zm0 3.6992c-7.1523 0-12.949-5.7969-12.949-12.949 0-7.1523 5.7969-12.949 12.949-12.949 7.1523 0 12.949 5.7969 12.949 12.949 0 7.1523-5.7969 12.949-12.949 12.949z"/>
  <path d="m377.85 452.77c2.5547 0 4.625-2.0703 4.625-4.625 0-2.5547-2.0703-4.625-4.625-4.625-2.5547 0-4.625 2.0703-4.625 4.625 0 2.5547 2.0703 4.625 4.625 4.625zm0-1.8516c-1.5312 0-2.7734-1.2422-2.7734-2.7734s1.2422-2.7734 2.7734-2.7734 2.7734 1.2422 2.7734 2.7734-1.2422 2.7734-2.7734 2.7734z"/>
  <path d="m370.45 468.33 1.8477-1.6797v36.996l-1.8477-1.6797h14.797l-1.8477 1.6797v-36.996l1.8477 1.6797zm0-1.6797h14.797v36.996h-14.797z"/>
  <path d="m370.45 475.53 1.8477-1.4805v22.199l-1.8477-1.4805h14.797l-1.8477 1.4805v-22.199l1.8477 1.4805zm0-1.4805h14.797v22.199h-14.797z"/>
  <path d="m370.45 482.5 1.8477-1.0586v7.4023l-1.8477-1.0586h14.797l-1.8477 1.0586v-7.4023l1.8477 1.0586zm0-1.0586h14.797v7.4023h-14.797z"/>
  <path d="m363.07 214.73 0.35547-4.9727 7.1875-15.812 0.49219-1.082h13.484l0.49219 1.082 7.1875 15.812 0.35547 4.9727-0.11719 0.027344-2.0625-4.5352-2.8164-39.461c-0.22266-3.0938-2.9688-5.6484-6.0742-5.6484h-7.4141c-3.1055 0-5.8516 2.5625-6.0742 5.6484l-2.8164 39.461-2.0664 4.5352zm-0.023438 0.33203 3.1758-44.434c0.28906-4.0469 3.8359-7.3633 7.918-7.3633h7.4141c4.0703 0 7.6289 3.2969 7.918 7.3633l3.1758 44.434-9.25-20.352h-11.102z"/>
  <path d="m368.6 374.55c0 2.5781 0.44531 6.2148 1.2539 10.57 0.39062 2.0977 0.85938 4.3164 1.3867 6.6094 0.58984 2.5781 1.2266 5.1133 1.8633 7.4961 0.22266 0.83203 0.42578 1.582 0.60938 2.2422 0.10938 0.39062 0.1875 0.65625 0.22656 0.79297l-3.4883-3h14.797l-3.4844 2.9883c0.039063-0.13281 0.11328-0.39844 0.22266-0.78516 0.18359-0.65234 0.39062-1.3984 0.61328-2.2266 0.63281-2.3672 1.2695-4.8867 1.8633-7.457 0.54297-2.3594 1.0195-4.6406 1.418-6.7969 0.78906-4.2695 1.2188-7.8555 1.2188-10.434v-20.215c0-2.6523-1.1055-10.277-2.9531-20.777-0.21094-1.207-0.43359-2.4453-0.66016-3.707-0.80469-4.457-1.668-9.0469-2.5312-13.516-0.30469-1.5664-0.58594-3-0.83594-4.2773-0.15234-0.76563-0.25781-1.3047-0.31641-1.5898l3.5977 3.4336h-11.102l3.5977-3.4492c-0.054688 0.28906-0.16406 0.83984-0.3125 1.6133-0.25391 1.2969-0.53516 2.75-0.83594 4.3359-0.86328 4.5234-1.7266 9.1641-2.5352 13.648-0.20312 1.1523-0.40625 2.2852-0.59766 3.3867-1.8828 10.707-3.0156 18.434-3.0156 20.898zm-3.6992 0v-20.215c0-7.4023 7.3984-44.93 7.3984-44.93h11.102s7.3984 36.977 7.3984 44.93v20.215c0 10.238-5.5508 29.203-5.5508 29.203h-14.797s-5.5508-19.109-5.5508-29.203z"/>
  <path d="m373.23 314.95v39.43l-1.8477 45.609 1.8477 0.09375 1.8477-45.656 0.003906-39.477z"/>
  <path d="m380.62 313.11v39.43l1.8516 45.703 1.8477-0.09375-1.8477-45.656v-39.383z"/>
  <path d="m374.15 375.08h8.3242v-1.8516h-9.25v1.8516z"/>
  <path d="m374.15 351.03h8.3242v-1.8516h-9.25v1.8516z"/>
  <path d="m348.25 425.95v109.14l18.496 22.199 22.199 0.003907 18.5-22.199v-109.14h-3.6992v109.14l-16.648 18.5-18.5-0.003906-16.648-18.5v-109.14z"/>
  <path d="m374.15 542.03v-34.684l1.8477 1.8477h-12.949l1.8516-1.8477v16.648l-0.82422-1.5391 5.5508 3.6992 0.82422 0.55078v13.938l-1.4023-1.793 6.9492 1.7344v0.46484l-1.3984 1.0938zm-11.102-18.035v-16.648h12.949v35.148l-7.3984-1.8516v-12.949z"/>
  <path d="m381.55 542.03v-34.684l-1.8477 1.8477h12.949l-1.8516-1.8477v16.648l0.82422-1.5391-5.5508 3.6992-0.82422 0.55078v13.938l1.4023-1.793-6.9492 1.7344v0.46484l1.3984 1.0938zm11.102-18.035v-16.648h-12.949v35.148l7.3984-1.8516v-12.949z"/>
  <path d="m364.9 431.1 1.8477-1.4531v73.996l-1.8477-1.4492h25.898l-1.8516 1.4492v-73.996l1.8516 1.4531zm0-1.4531h25.898v73.996h-25.898z"/>
  <path d="m351.95 415.77h8.3359l-0.011718-0.9375-1.8516-127.64-1.8477 0.027344 1.8477 127.64 0.92578-0.9375h-7.3984z"/>
  <path d="m404.69 415.77h-8.3359l0.011719-0.9375 1.8516-127.64 1.8477 0.027344-1.8477 127.64-0.92578-0.9375h7.3984z"/>
  <path d="m349.38 452.43 7.4023 9.25-0.20312-0.57812v53.648l0.12109-0.46094-7.3984 12.953 1.6055 0.91406 7.3984-12.949 0.12109-0.21094v-54.219l-0.20312-0.25391-7.3984-9.25z"/>
  <path d="m406.45 452.43-7.4023 9.25 0.20312-0.57812v53.648l-0.12109-0.46094 7.3984 12.953-1.6055 0.91406-7.3984-12.949-0.12109-0.21094v-54.219l0.20312-0.25391 7.3984-9.25z"/>
  <path d="m359.71 269.55 12.949-5.5469-0.36328 0.074219h11.102l-0.36719-0.074219 12.949 5.5469 1.4414 0.61719-0.15625-1.5586-1.8477-18.5-0.042969-0.43359-0.36328-0.24219-11.102-7.3984-0.23437-0.15625h-11.656l-0.23438 0.15625-11.102 7.3984-0.36328 0.24219-0.042969 0.43359-1.8477 18.5-0.15625 1.5586zm-0.72656-1.6992 1.2852 0.94141 1.8477-18.5-0.40625 0.67969 11.102-7.3984-0.51562 0.15234h11.102l-0.51562-0.15234 11.102 7.3984-0.40625-0.67969 1.8477 18.5 1.2852-0.94141-12.949-5.5508-0.36328-0.074219h-11.102l-0.36328 0.074219z"/>
  <path d="m337.77 533.25h-52.414l1.8477 1.8477v-27.746l-1.8477 1.8477h35.148v-1.8477h-35.148v27.746h53.648zm0 0 1.2344 1.8477h-53.648v-27.746h35.148v1.8477h-35.148l1.8477-1.8477v27.746l-1.8477-1.8477z"/>
  <path d="m174.36 446.3v-3.6953l3.6953-0.003906c1.0312 0 1.8555-0.82422 1.8555-1.8398v-25.918c0-1.0117-0.83203-1.8398-1.8555-1.8398h-14.789c-1.0312 0-1.8555 0.82422-1.8555 1.8398v25.918c0 1.0117 0.82812 1.8398 1.8555 1.8398l3.6953 0.003906v92.492l-3.6992-3.6992h14.797l-3.6992 3.6992zm3.6992 0v88.797h-14.797v-88.797c-3.0664 0-5.5508-2.4844-5.5508-5.5391v-25.918c0-3.0586 2.4844-5.5391 5.5547-5.5391h14.789c3.0664 0 5.5547 2.4844 5.5547 5.5391v25.918c0 3.0586-2.4805 5.5391-5.5508 5.5391z"/>
  <path d="m168.66 253.31 0.15234-14.207h3.6992l0.15234 14.07z"/>
  <path d="m171.95 273.55 1.4805 137.61 0.92578-0.93359h-7.3984l0.92187 0.93359 1.4805-137.61-1.8477-0.019531-1.4805 137.61-0.011718 0.93359h9.2695l-0.007813-0.93359-1.4805-137.61z"/>
  <path d="m161.41 270.55 1.8516-1.8477v5.5469l-1.8516-1.8477h18.5l-1.8516 1.8477v-5.5469l1.8516 1.8477zm0-1.8477h18.5v5.5469h-18.5z"/>
  <path d="m159.62 251.84c0.90234 2.1602 1.1094 2.6602 4.168 10 1.6406 3.9375 1.6406 3.9375 3.0078 7.2188l-1.7461-1.1406 11.23-0.22656-1.668 1.1367 6.9883-16.777h0.76953l0.76172 1.1406-0.29688 0.71094h-24.359c-0.65625-1.5742-0.6875-1.6484-0.71094-1.707l1.1758-0.14453h0.76953zm5.4688 17.93c-2.4609-5.9062-7.3828-17.719-7.3828-17.719h25.898l-7.2852 17.488z"/>
  <path d="m165.11 422.25h3.6992v16.648h-3.6992z"/>
  <path d="m172.51 422.25h3.6992v16.648h-3.6992z"/>
  <path d="m166.04 270.55h10.176v-1.8477h-11.102v1.8477z"/>
  <path d="m228.21 444.21 53.078-11.258-0.58594-3.6562-106.34 22.555v72.148l118.39 23.32 3.6992 0.72656v-20.348h-1.8477 1.8477v16.578l-121.38-23.906 2.9844 3.6289v-72.148l-2.9297 3.6211zm64.547 91.777v-8.2891h1.8516z"/>
  <path d="m307.55 521.88v3.9688h-29.598v-109.14h73.996v109.14h-25.898v-3.9688h22.199v-101.21h-66.598v101.21z"/>
  <path d="m326.05 487.02v12.926c0 1.0195-0.82813 1.8477-1.8555 1.8477h-14.789c-1.0195 0-1.8555-0.83594-1.8555-1.8398v-12.785h-3.6992v12.785c0 3.043 2.4883 5.5391 5.5547 5.5391h14.789c3.0703 0 5.5547-2.4844 5.5547-5.5469v-12.953z"/>
  <path d="m306.07 540.64-0.035157-0.36719 3.0117-3.332h0.37109l2.5547 25.539c-0.085937-0.875-0.76562-1.4922-1.6523-1.4922h12.957c-0.88281 0-1.5625 0.62109-1.6484 1.4922l2.5508-25.539h0.37109l3.0156 3.332-0.035156 0.36719zm-0.37109-3.6992h22.199l-2.5898 25.906c-0.10156 1.0156-1.0078 1.8438-2.0312 1.8438h-12.957c-1.0195 0-1.9297-0.83203-2.0312-1.8438z"/>
  <path d="m305.7 507.35 3.6992-3.7031v35.148l-3.6992-3.6992h22.199l-3.6992 3.6992v-35.148l3.6992 3.7031zm0-3.7031h22.199v35.148h-22.199z"/>
  <path d="m291.72 438.58 2.9062 38.938c0.30859 4.1758 4.043 7.6328 8.25 7.6328h27.855c4.2031 0 7.9414-3.4648 8.2539-7.6328l2.9023-38.938c0.29688-3.9609-2.6016-7.0781-6.5859-7.0781h-36.996c-3.9805 0-6.8789 3.1211-6.5859 7.0781zm-3.6875 0.27734c-0.45703-6.1055 4.1445-11.055 10.273-11.055h36.996c6.1328 0 10.734 4.9414 10.277 11.055l-2.9062 38.938c-0.45312 6.1055-5.8086 11.055-11.941 11.055h-27.855c-6.1406 0-11.484-4.9453-11.941-11.055z"/>
  <path d="m289.05 441.67h56.422v-1.8477h-57.348v1.8477z"/>
  <path d="m290.91 458.32h52.723v-1.8516h-53.648v1.8516z"/>
  <path d="m292.75 441.67h3.6992l-0.92188-0.92188v16.648l0.92188-0.92578h-3.6992l0.92578 0.92578v-16.648zm0-1.8477h-0.92578v18.5h5.5508v-18.5z"/>
  <path d="m300.16 441.67h3.6992l-0.92578-0.92188v16.648l0.92578-0.92578h-3.6992l0.92188 0.92578v-16.648zm0-1.8477h-0.92578v18.5h5.5469v-18.5z"/>
  <path d="m307.55 441.67h3.6992l-0.92578-0.92188v16.648l0.92578-0.92578h-3.6992l0.92578 0.92578v-16.648zm0-1.8477h-0.92578v18.5h5.5508v-18.5z"/>
  <path d="m314.95 441.67h3.6992l-0.92188-0.92188v16.648l0.92188-0.92578h-3.6992l0.92578 0.92578v-16.648zm0-1.8477h-0.92578v18.5h5.5508v-18.5z"/>
  <path d="m322.36 441.67h3.6992l-0.92578-0.92188v16.648l0.92578-0.92578h-3.6992l0.92188 0.92578v-16.648zm0-1.8477h-0.92578v18.5h5.5469v-18.5z"/>
  <path d="m329.75 441.67h3.6992l-0.92578-0.92188v16.648l0.92578-0.92578h-3.6992l0.92578 0.92578v-16.648zm0-1.8477h-0.92578v18.5h5.5508v-18.5z"/>
  <path d="m337.15 441.67h3.6992l-0.92187-0.92188v16.648l0.92187-0.92578h-3.6992l0.92578 0.92578v-16.648zm0-1.8477h-0.92578v18.5h5.5508v-18.5z"/>
  <path d="m337.15 441.67h3.6992l-0.92187-0.92188v16.648l0.92187-0.92578h-3.6992l0.92578 0.92578v-16.648zm0-1.8477h-0.92578v18.5h5.5508v-18.5z"/>
  <path d="m314.95 544.34v16.648h3.6992v-16.648zm0-1.8477h5.5508v20.348h-7.3984v-20.348z"/>
  <path d="m187.31 450v39.07h7.3984v21.977h11.102v-21.977h3.6992v21.977h11.102v-21.977h3.6992v21.977h11.098v-21.977h3.6992v21.977h11.102v-21.977h3.6992v21.977h11.102v-21.977h14.797c0.21094 0 0-2.4414 0-2.4414h-16.648v21.977h-7.3984v-21.977h-7.4023v21.977h-7.3984v-21.977h-7.3984v21.977h-7.4023v-21.977h-7.3984v21.977h-7.3984v-21.977h-7.4023v21.977h-7.3984v-21.977h-7.3984v-36.629z"/>
  <path d="m177.1 461.1h103.63v-3.6992h-105.45v3.6992z"/>
  <path d="m280.73 464.8h12.176v-1.8477h-13.102v1.8477z"/>
  <path d="m280.73 479.6h13.875v-1.8516h-14.801v1.8516z"/>
  <path d="m341.78 464.8h10.328v-1.8477h-11.254v1.8477z"/>
  <path d="m341.78 479.6h10.176v-1.8516h-11.102v1.8516z"/>
  <path d="m280.73 494.4h26.824v-1.8516h-27.75v1.8516z"/>
  <path d="m328.83 494.4h21.273v-1.8516h-22.199v1.8516z"/>
  <path d="m331.6 500.87v23.125h1.8516v-24.051h-1.8516z"/>
  <path d="m337.15 500.87v23.125h1.8516v-24.051h-1.8516z"/>
  <path d="m342.7 500.87v23.125h1.8477v-24.051h-1.8477z"/>
  <path d="m292.75 522.14v24.051h3.6992v-24.051z"/>
  <path d="m417.93 533.25h52.414l-1.8516 1.8477v-27.746l1.8516 1.8477h-35.148v-1.8477h35.148v27.746h-53.648zm0 0-1.2344 1.8477h53.648v-27.746h-35.148v1.8477h35.148l-1.8516-1.8477v27.746l1.8516-1.8477z"/>
  <path d="m581.34 446.3v-3.6953l-3.6953-0.003906c-1.0312 0-1.8555-0.82422-1.8555-1.8398v-25.918c0-1.0117 0.83203-1.8398 1.8555-1.8398h14.789c1.0273 0 1.8555 0.82422 1.8555 1.8398v25.918c0 1.0117-0.82812 1.8398-1.8555 1.8398l-3.6953 0.003906v92.492l3.6992-3.6992h-14.797l3.6992 3.6992zm-3.6992 0v88.797h14.797v-88.797c3.0664 0 5.5508-2.4844 5.5508-5.5391v-25.918c0-3.0586-2.4844-5.5391-5.5547-5.5391h-14.789c-3.0664 0-5.5547 2.4844-5.5547 5.5391v25.918c0 3.0586 2.4805 5.5391 5.5508 5.5391z"/>
  <path d="m587.05 253.31-0.15234-14.207h-3.7031l-0.14844 14.07z"/>
  <path d="m583.75 273.55-1.4766 137.61-0.92578-0.93359h7.3984l-0.92578 0.93359-1.4766-137.61 1.8477-0.019531 1.4805 137.61 0.011719 0.93359h-9.2734l0.011719-0.93359 1.4805-137.61z"/>
  <path d="m594.29 270.55-1.8516-1.8477v5.5469l1.8516-1.8477h-18.5l1.8516 1.8477v-5.5469l-1.8516 1.8477zm0-1.8477h-18.5v5.5469h18.5z"/>
  <path d="m596.08 251.84c-0.90234 2.1602-1.1094 2.6602-4.168 10-1.6406 3.9375-1.6406 3.9375-3.0078 7.2188l1.7461-1.1406-11.23-0.22656 1.668 1.1367-6.9883-16.777h-0.76953l-0.76172 1.1406 0.29688 0.71094h24.359c0.65625-1.5742 0.6875-1.6484 0.71094-1.707l-1.1758-0.14453h-0.76953zm-5.4688 17.93c2.4609-5.9062 7.3828-17.719 7.3828-17.719h-25.898l7.2852 17.488z"/>
  <path d="m590.59 422.25h-3.6992v16.648h3.6992z"/>
  <path d="m583.19 422.25h-3.6992v16.648h3.6992z"/>
  <path d="m589.67 270.55h-10.176v-1.8477h11.102v1.8477z"/>
  <path d="m527.5 444.21-53.078-11.258 0.58594-3.6562 106.34 22.555v72.148l-118.39 23.32-3.6992 0.72656v-20.348h1.8477-1.8477v16.578l121.38-23.906-2.9844 3.6289v-72.148l2.9297 3.6211zm-64.547 91.777v-8.2891h-1.8516z"/>
  <path d="m448.15 521.88v3.9688h29.598v-109.14h-73.996v109.14h25.898v-3.9688h-22.199v-101.21h66.598v101.21z"/>
  <path d="m429.65 487.02v12.926c0 1.0195 0.82812 1.8477 1.8555 1.8477h14.789c1.0195 0 1.8555-0.83594 1.8555-1.8398v-12.785h3.6992v12.785c0 3.043-2.4883 5.5391-5.5547 5.5391h-14.789c-3.0703 0-5.5547-2.4844-5.5547-5.5469v-12.953z"/>
  <path d="m449.63 540.64 0.035156-0.36719-3.0156-3.332h-0.36719l-2.5547 25.539c0.085938-0.875 0.76563-1.4922 1.6523-1.4922h-12.961c0.88672 0 1.5664 0.62109 1.6523 1.4922l-2.5508-25.539h-0.37109l-3.0156 3.332 0.035157 0.36719zm0.37109-3.6992h-22.199l2.5898 25.906c0.10156 1.0156 1.0078 1.8438 2.0273 1.8438h12.961c1.0195 0 1.9258-0.83203 2.0273-1.8438z"/>
  <path d="m450 507.35-3.7031-3.7031v35.148l3.7031-3.6992h-22.199l3.6992 3.6992v-35.148l-3.6992 3.7031zm0-3.7031h-22.199v35.148h22.199z"/>
  <path d="m463.98 438.58-2.9062 38.938c-0.30859 4.1758-4.043 7.6328-8.25 7.6328h-27.859c-4.1992 0-7.9375-3.4648-8.25-7.6328l-2.9062-38.938c-0.29297-3.9609 2.6055-7.0781 6.5859-7.0781h37c3.9766 0 6.8789 3.1211 6.5859 7.0781zm3.6875 0.27734c0.45703-6.1055-4.1445-11.055-10.273-11.055h-37c-6.1289 0-10.73 4.9414-10.273 11.055l2.9023 38.938c0.45703 6.1055 5.8125 11.055 11.941 11.055h27.859c6.1406 0 11.484-4.9453 11.941-11.055z"/>
  <path d="m466.65 441.67h-56.422v-1.8477h57.348v1.8477z"/>
  <path d="m464.8 458.32h-52.723v-1.8516h53.648v1.8516z"/>
  <path d="m462.95 441.67h-3.6992l0.92188-0.92188v16.648l-0.92188-0.92578h3.6992l-0.92578 0.92578v-16.648zm0-1.8477h0.92188v18.5h-5.5469v-18.5z"/>
  <path d="m455.55 441.67h-3.6992l0.92578-0.92188v16.648l-0.92578-0.92578h3.6992l-0.92188 0.92578v-16.648zm0-1.8477h0.92578v18.5h-5.5508v-18.5z"/>
  <path d="m448.15 441.67h-3.6992l0.92578-0.92188v16.648l-0.92578-0.92578h3.6992l-0.92578 0.92578v-16.648zm0-1.8477h0.92578v18.5h-5.5508v-18.5z"/>
  <path d="m440.75 441.67h-3.6992l0.92188-0.92188v16.648l-0.92188-0.92578h3.6992l-0.92578 0.92578v-16.648zm0-1.8477h0.92188v18.5h-5.5469v-18.5z"/>
  <path d="m433.35 441.67h-3.6992l0.92578-0.92188v16.648l-0.92578-0.92578h3.6992l-0.92188 0.92578v-16.648zm0-1.8477h0.92578v18.5h-5.5508v-18.5z"/>
  <path d="m425.95 441.67h-3.6992l0.92578-0.92188v16.648l-0.92578-0.92578h3.6992l-0.92578 0.92578v-16.648zm0-1.8477h0.92578v18.5h-5.5508v-18.5z"/>
  <path d="m418.55 441.67h-3.6992l0.92188-0.92188v16.648l-0.92188-0.92578h3.6992l-0.92578 0.92578v-16.648zm0-1.8477h0.92578v18.5h-5.5508v-18.5z"/>
  <path d="m418.55 441.67h-3.6992l0.92188-0.92188v16.648l-0.92188-0.92578h3.6992l-0.92578 0.92578v-16.648zm0-1.8477h0.92578v18.5h-5.5508v-18.5z"/>
  <path d="m440.75 544.34v16.648h-3.6992v-16.648zm0-1.8477h-5.5508v20.348h7.3984v-20.348z"/>
  <path d="m568.39 450v39.07h-7.4023v21.977h-11.098v-21.977h-3.6992v21.977h-11.102v-21.977h-3.6992v21.977h-11.098v-21.977h-3.6992v21.977h-11.102v-21.977h-3.6992v21.977h-11.102v-21.977h-14.797c-0.21094 0 0-2.4414 0-2.4414h16.648v21.977h7.3984v-21.977h7.4023v21.977h7.3984v-21.977h7.3984v21.977h7.4023v-21.977h7.3984v21.977h7.3984v-21.977h7.4023v21.977h7.3984v-21.977h7.3984v-36.629z"/>
  <path d="m578.6 461.1h-103.63v-3.6992h105.45v3.6992z"/>
  <path d="m474.97 464.8h-12.18v-1.8477h13.105v1.8477z"/>
  <path d="m474.97 479.6h-13.875v-1.8516h14.801v1.8516z"/>
  <path d="m413.93 464.8h-10.328v-1.8477h11.254v1.8477z"/>
  <path d="m413.93 479.6h-10.176v-1.8516h11.102v1.8516z"/>
  <path d="m474.97 494.4h-26.824v-1.8516h27.75v1.8516z"/>
  <path d="m426.88 494.4h-21.273v-1.8516h22.199v1.8516z"/>
  <path d="m424.1 500.87v23.125h-1.8477v-24.051h1.8477z"/>
  <path d="m418.55 500.87v23.125h-1.8516v-24.051h1.8516z"/>
  <path d="m413 500.87v23.125h-1.8516v-24.051h1.8516z"/>
  <path d="m462.95 522.14v24.051h-3.6992v-24.051z"/>
 </g>
</svg>
