<svg xmlns="http://www.w3.org/2000/svg" viewBox="0 0 512 512" fill="#555e6b" xmlns:v="https://vecta.io/nano"><path d="M173 302.4c37.1 0 67.3-30.2 67.3-67.3s-30.2-67.3-67.3-67.3-67.3 30.2-67.3 67.3 30.2 67.3 67.3 67.3zm0-118.6c28.3 0 51.3 23 51.3 51.3s-23 51.3-51.3 51.3-51.3-23-51.3-51.3 23-51.3 51.3-51.3zm176.3 68.4c22.2 0 40.3-18.1 40.3-40.3s-18.1-40.3-40.3-40.3-40.3 18.1-40.3 40.3 18.1 40.3 40.3 40.3zm0-64.6c13.4 0 24.3 10.9 24.3 24.3s-10.9 24.3-24.3 24.3-24.3-10.9-24.3-24.3 10.9-24.3 24.3-24.3zm152.5-73.5c-16.1-27.9-57-38.3-115.4-29.6-37.3-28.5-82.7-44-130.5-44-57.6 0-111.7 22.4-152.4 63.1s-63 94.8-63 152.4c0 9.2.6 18.3 1.7 27.3-36.7 46.1-48.1 86.8-32 114.7 12.4 21.5 39.5 32.6 78 32.6 11.5 0 24-1 37.4-3 37.3 28.5 82.7 43.9 130.4 43.9 57.6 0 111.7-22.4 152.4-63.1s63.1-94.8 63.1-152.4c0-9.1-.6-18.2-1.7-27.1 18.2-22.9 30.7-45.2 36.1-65.4 5.2-19.2 3.8-35.8-4.1-49.4zM256 56.5c99.2 0 181.6 72.7 196.9 167.6-33.7 40.3-86 83-147.1 118.3-60.6 35-122.7 59-175.7 68.2C85.2 374 56.5 318.3 56.5 256 56.5 146 146 56.5 256 56.5zM24 390c-11.2-19.4-3.2-50 22-85.2 9 38.9 28.7 74.7 57.6 103.6 1.8 1.8 3.5 3.5 5.4 5.2-43.2 4.1-73.8-4.2-85-23.6zm348.2 28.1c-3-5.5-4.8-11.8-4.8-17.6 0-19.4 15.7-35.1 35.1-35.1 5.7 0 11.8 1.7 17.2 4.5-13 18.6-29.1 34.9-47.5 48.2zM455.5 256c0 36.6-9.9 70.9-27.2 100.4-8-4.5-17.1-7-25.8-7-28.2 0-51.1 22.9-51.1 51.1 0 9 2.7 18.4 7.4 26.4-30 18.1-65.2 28.6-102.8 28.6-39.9 0-77-11.8-108.2-32 51.3-11.1 109.4-34.5 166-67.2 57.6-33.2 106.8-72.1 141.5-110.3l.2 10zm35-96.7c-4 14.8-12.4 31.1-24.5 48-9-39-28.6-74.7-57.6-103.7-1.7-1.7-3.5-3.4-5.3-5.1 43.2-4.1 73.7 4.2 84.9 23.6 5.6 9.8 6.5 22.3 2.5 37.2z"/></svg>