<svg xmlns="http://www.w3.org/2000/svg" viewBox="0 0 512 512" fill="#555e6b" xmlns:v="https://vecta.io/nano"><path d="M471.3 498.2L418.5 408l-.2-.4c-1.9-2.9-5-4.6-8.4-4.6h-2.1c3.3-6.6 5-13.8 5-21.4 0-6-1.2-11.9-3.3-17.4 3.8-3.7 6.3-8.6 7.1-13.9l7.4-51.8c8.8-7.4 11.2-20 5.3-30.3l-108-186.6-11.9-21.2-.1-.1C276 2.7 202.2-17.1 144.7 16.2c-57.5 33.2-77.3 107.1-44.2 164.5l15.9 28.3.2-.1 41.3 71L107 368l-.3.5-.2.5c-.5 1.2-.7 2.5-.7 3.8h0V403h-3.6c-3.6 0-7 2-8.7 5.1l-53.1 90.3c-1.6 2.8-1.6 6.3 0 9s4.6 4.4 7.8 4.4h169 .4c3.2 0 6.2-1.7 7.8-4.6s1.4-6.4-.4-9.1L172.2 408l-.2-.4c0-.1-.1-.1-.1-.2.3-.4.7-.8.9-1.3l28.9-50.1 18.8 32.6c4.5 7.7 12.5 12 20.7 12 2.9 0 5.8-.5 8.6-1.6l50.6 18.8c2.8 1 5.7 1.6 8.5 1.6 4.1 0 8.2-1.1 11.9-3.2l7-4.1c1.8 2.2 3.9 4.2 6 6.1l-47.1 80.2c-1.6 2.8-1.6 6.3 0 9s4.6 4.4 7.8 4.4h169 .4c3.2 0 6.2-1.7 7.8-4.6 1.6-2.8 1.4-6.3-.4-9zM295.5 68.3l8 14.3-42.5 24.6L236.6 65l38.1-22.2c8 7.1 15.1 15.6 20.8 25.5zM152.7 30c16.4-9.5 34.3-14 52-14 3.8 0 7.6.2 11.4.6L109.5 78.2A103.6 103.6 0 0 1 152.7 30zm-50.3 70.8l136.8-78.9a104.72 104.72 0 0 1 21.6 10.4l-32.3 18.8c-3.7 2.1-6.3 5.6-7.4 9.7s-.5 8.4 1.6 12.1l24.4 42.2-29.4 17-12-20.8c-4.4-7.6-14.2-10.2-21.8-5.8l-20.8 12c-3.7 2.1-6.3 5.6-7.4 9.7s-.5 8.4 1.6 12.1l12 20.7-46.7 27-8-14.2c-13.2-22.6-16.8-48.2-12.2-72zm80.6 51.3l-12-20.7 20.8-12 12 20.8-20.8 11.9zM121.8 387l27.7 16h-27.7v-16zm83.4 108.9H60.5l45.2-76.9h54.5l45 76.9zM162.4 392l-38.1-22 90.5-156.8c3.2 6.9 8.4 13 15.5 17.1 5.9 3.4 12.4 5.1 18.9 5.1 1.2 0 2.4-.1 3.7-.2L162.4 392zm157.3-116.9l-38.1 22-23-39.8 23.7-41h0c.6-1 1.1-2.1 1.6-3.1l35.8 61.9zm-51.3-66.8c-2.9 5.1-7.7 8.7-13.4 10.2s-11.6.7-16.7-2.2c-10.5-6.1-14.1-19.5-8.1-30.1 2.9-5.1 7.7-8.7 13.4-10.2 1.9-.5 3.8-.8 5.7-.8 3.8 0 7.6 1 11 3 10.6 6.1 14.2 19.6 8.1 30.1zM210.9 340l38.5-66.7 18.4 31.8c2.1 3.7 5.6 6.3 9.7 7.4 1.4.4 2.8.5 4.1.5a16.21 16.21 0 0 0 8-2.1l38.1-22c7.6-4.4 10.2-14.2 5.8-21.8l-50.7-87.8c-3.2-6-8.1-11.3-14.5-14.9-8.8-5.1-19-6.4-28.8-3.8s-18 8.9-23.1 17.7h0L167 263.9l-36.6-63 181-104.5 104 179.6c2.1 3.7 1 8.2-2.4 10.6l-168.2 97.2c-3.8 1.8-8.2.4-10.4-3.3L210.9 340zm101.9 62.4c-2 1.2-4.5 1.4-6.8.5l-37.8-14.1 138.1-79.7-5.6 38.9c-.3 2.4-1.8 4.7-3.9 5.9l-84 48.5zm82.8-29.4c.8 2.8 1.2 5.6 1.2 8.6 0 7.4-2.4 14.3-7 20l-1.4 1.4h-39.9c-2.1 0-4 .7-5.7 1.8-.3-.3-.6-.5-.8-.8l53.6-31zm-88.8 122.9L352 419h54.5l45 76.9H306.8z"/><circle cx="274.5" cy="70.3" r="12"/></svg>