<svg xmlns="http://www.w3.org/2000/svg" viewBox="0 0 512 512" fill="#FFFFFF" xmlns:v="https://vecta.io/nano"><path d="M326.7 235.2h0c-23.1 1-36.6 4.9-45 13.1-9.7 9.3-9.7 21.1-9.7 29.7v.3c0 11.6 1.3 23.6 10.6 32.3 7.7 7.2 18.7 10.4 35.9 10.4a155.55 155.55 0 0 0 9.5-.3c25.7-1.4 43.3-4.9 51.4-17.9 5.2-8.3 5.3-18.5.3-30.3-5.4-13.6-15.7-38.8-53-37.3zm39.2 59.1c-4.7 7.5-21.4 9.5-38.8 10.5-3 .2-5.9.3-8.6.3-12.6 0-20.5-1.9-24.9-6-4-3.8-5.6-9.6-5.6-20.7v-.4c0-8.2.3-13.9 4.8-18.2 5.2-5.1 16.2-7.8 34.6-8.6 26.1-1.1 32.5 14.7 37.7 27.3v.1c4.2 10.2 1.7 14.3.8 15.7zM296 480.5c4.4 0 8-3.6 8-8v-34c0-4.4-3.6-8-8-8s-8 3.6-8 8v34c0 4.4 3.6 8 8 8zm-40 0c4.4 0 8-3.6 8-8v-54c0-4.4-3.6-8-8-8s-8 3.6-8 8v54c0 4.4 3.6 8 8 8zm-70.8-245.1c-37-1.8-47.5 23.6-53.2 37.2l7.4 3.1-7.4-3.1h0c-4.9 11.9-4.8 22.1.3 30.3 6.1 9.6 16.8 16 51.4 17.9 3.5.2 6.6.3 9.6.3 17.3 0 28.3-3.2 35.9-10.4 9.3-8.8 10.6-20.7 10.6-32.3v-.3c0-8.6 0-20.4-9.6-29.6-8.5-8.2-22-12.1-45-13.1zm38.6 43.1c0 11.1-1.6 16.9-5.6 20.7-4.3 4.1-12.2 6-24.9 6-2.6 0-5.4-.1-8.6-.3-17.3-1-34-2.9-38.8-10.5-.8-1.3-3.3-5.3.9-15.7h0c5.6-13.4 11.9-28.6 37.7-27.3 18.3.8 29.3 3.5 34.6 8.7 4.4 4.2 4.7 9.7 4.7 18.1v.3zm-7.8 202c4.4 0 8-3.6 8-8v-34c0-4.4-3.6-8-8-8s-8 3.6-8 8v34c0 4.4 3.6 8 8 8zm279.9-57.4l-1-3.2-29.3-90.8c-3.8-18.4-25.9-122.6-39.9-141.9-.2-.2-.3-.4-.5-.6-.3-26.1-4.5-83.3-33.2-120.6-31.7-41.1-83-48.2-108.6-49-.7-1.1-1.4-2.2-2.2-3.2l-.8-1C274.5 5.3 265.6 1 256 1s-18.5 4.3-24.3 11.8l-.9 1.1c-.8 1-1.5 2.1-2.2 3.2-14.1.4-33.5 2.7-53.4 9.9-23.1 8.4-41.6 21.6-55.1 39.1-28.7 37.2-32.9 94.4-33.2 120.5-.2.2-.3.4-.5.6C72 207 49.1 316.1 46.1 330.4l-29.9 92.7c-1.4 4.3.3 9 4.1 11.4l105.3 68.2c8.1 5.2 17.4 8 27.1 8.2h0 .1 1.2 203.6 1.2.1 0c9.4-.3 18.7-3.1 27-8.2l105.6-68.3.3-.2c4-2.5 5.5-7 4.1-11.1zm-356.2 67.2c-3-3-4.6-6.9-4.6-11.2s1.7-8.3 4.7-11.4c6.1-6.2 16.3-6.2 22.6.1 3 3 4.7 6.9 4.7 11.2s-1.7 8.3-4.8 11.4c-2.5 2.6-5.9 4.2-9.6 4.5-2.5-.1-5-.5-7.4-1-2-.7-4-2-5.6-3.6zm33.9-33.9c-3.9-3.8-8.4-6.5-13.3-7.9l65-60.3c5.5 5.9 12.8 6.8 16.9 6.8H256h13.8c8.2 0 13.5-3.2 16.9-6.8l65 60.3c-4.9 1.5-9.4 4.1-13.3 7.9-6.1 6-9.4 14-9.4 22.5 0 5.7 1.5 11.2 4.3 16.1H178.8c2.8-4.8 4.3-10.3 4.3-16.1-.1-8.5-3.4-16.5-9.5-22.5zm60.3-92c0-12.2 5.7-26.4 21.9-26.4h.2.2c16.2 0 21.9 14.2 21.9 26.4 0 14.6-5.4 14.6-8.3 14.6H256h-13.8c-2.9 0-8.3 0-8.3-14.6zm115.8 125.9c-3-3-4.7-7.1-4.7-11.4 0-4.2 1.7-8.2 4.7-11.2 6.3-6.2 16.4-6.3 22.6-.1 6.2 6.3 6.3 16.4 0 22.6-1.5 1.5-3.4 2.7-5.2 3.4-2.5.7-5.1 1-7.7 1.2-3.7-.2-7.1-1.8-9.7-4.5zm32.1-35.7l-88.3-82c.4-2.5.6-5.3.6-8.3 0-25-15.6-42.4-37.9-42.4h-.2-.2c-22.3 0-37.9 17.4-37.9 42.4 0 3 .2 5.8.6 8.3l-88.3 82c-4.5-20.4-12-50.1-22.6-75.9-13.8-33.5-29.3-58.2-37.2-69.8 7.5-21.4 14.7-41 20.4-53.8 7.1-16.1 16.8-38.2 59.7-38.2 20.4 0 36.9 4.5 51.5 8.5 12.6 3.4 24.5 6.6 37 6.6h34.2c12.5 0 24.4-3.2 37-6.6 14.6-4 31.1-8.5 51.5-8.5 42.8 0 52.6 22.1 59.7 38.2 5.1 11.5 11.9 29.7 20.3 53.7-7.9 11.6-23.5 36.3-37.3 69.9-10.6 25.8-18.1 55.5-22.6 75.9zM224.2 167v47.4c-5.7-1.1-11.6-2.7-18-4.5-15.6-4.2-33.2-9-55.7-9-35 0-52.9 13.4-63.2 27.3 4.6-15.4 8.8-27.2 11.9-31.5 21.5-29.4 71.6-29.7 125-29.7zm63.6 0c53.3 0 103.5.3 124.9 29.7 3.1 4.3 7.3 15.9 11.8 31.1-10.3-13.8-28.2-26.9-62.8-26.9-22.5 0-40.1 4.8-55.7 9-6.5 1.8-12.4 3.4-18.2 4.5V167zm91.5-91.1c21.1 27.4 27.5 67.9 29.3 95-29.1-19.7-73.8-19.9-120.8-19.9V33.3c24.1 1.5 65.7 9.2 91.5 42.6zm-136-52.1l.8-1.1c2.9-3.6 7.2-5.7 11.8-5.7s8.9 2.1 11.9 5.8l.8 1c2 2.6 3.2 5.9 3.2 9.2v183h-31.6V33c0-3.3 1.1-6.6 3.1-9.2zM132.7 75.9c25.8-33.4 67.4-41.1 91.5-42.6V151c-47 0-91.7.2-120.8 19.9 1.8-27.2 8.2-67.6 29.3-95zM63.8 328.1c8 12.8 19 32.3 29 56.7 15 36.5 23.9 83.1 26 94.3l-85.9-55.6 30.9-95.4zm329.4 151.1c2-11.2 10.9-57.8 26-94.4 10.1-24.5 21.1-44 29.1-56.8l1.9 5.5c0 .2.1.4.1.5h.1l29 89.6-86.2 55.6z"/></svg>