<svg xmlns="http://www.w3.org/2000/svg" viewBox="0 0 512 512" fill="#555e6b" xmlns:v="https://vecta.io/nano"><path d="M268.2 196.5c16.6 7.3 33.9 11 50.5 11 8.8 0 17.4-1 25.6-3.2 23.9-6.2 41.8-20.7 50.4-40.8 9-21.1 6.7-45.5-6.4-68.6-12.4-21.9-33.2-40.2-58.5-51.3-25.4-11.2-52.4-14-76.1-7.9-23.9 6.2-41.8 20.7-50.4 40.8-9 21.1-6.7 45.5 6.4 68.6 12.4 22 33.2 40.2 58.5 51.4zm-28.8-38.6l27.6-13.7c10.6 10.4 25.5 16.6 40 16.6 2.7 0 5.4-.2 8-.7l19.7 29.9c-32.8 6.1-70.6-7.3-95.3-32.1zm30.6-51.4c2.1-5 6.8-8.7 13.2-10.3 2.5-.6 5.1-.9 7.7-.9 13.6 0 28.4 8 35 19.9h0c3.6 6.4 4.3 12.9 2 18.3-2.1 5-6.8 8.7-13.2 10.3-15.2 3.9-34.8-4.8-42.7-19-3.5-6.3-4.3-12.9-2-18.3zm109.9 50.7c-5.3 12.5-15.5 22.2-29.2 28.1l-20.4-30.9c5.5-3.6 9.8-8.5 12.3-14.5 4.2-9.8 3.2-21.4-2.5-32l28.4-14.2c2.1 2.9 4.1 5.9 5.8 9 10.6 18.8 12.6 38.1 5.6 54.5zm-22.2-76L330.1 95c-12.9-12.1-31.8-18.2-48.7-14.8l-19.8-30a88.11 88.11 0 0 1 17.8-1.8c28.2.1 57.6 12.5 78.3 32.8zm-139.6 1.6c5.1-12.1 14.8-21.5 27.7-27.4l20.6 31.2c-4.9 3.5-8.7 8.1-11.1 13.7-4 9.5-3.3 20.6 2 30.9l-28.5 14.1c-1.8-2.6-3.6-5.3-5.1-8.1-10.6-18.7-12.6-38-5.6-54.4zm218.2-7.1C388.1 27.5 324.1 1 256 1S123.9 27.5 75.7 75.7C39.8 111.6 15.9 156.3 6.1 205c-.1.3-.1.6-.2.9a261.43 261.43 0 0 0-4.7 40.7c-.1.6-.1 1.1-.1 1.7L1 256c0 54.3 16.9 106 48.1 149.2 0 0 0 .1.1.1 7.9 10.9 16.7 21.3 26.5 31C123.9 484.5 187.9 511 256 511s132.1-26.5 180.3-74.7S511 324.1 511 256s-26.5-132.1-74.7-180.3zM87 87c45.1-45.1 105.2-70 169-70s123.9 24.9 169 70c20.8 20.8 37.3 44.8 49 70.8-13.9 10.9-59.8 44.2-134.2 74-145.6 58.1-276.5 80.4-314.8 86-2.1-7.8-3.7-15.7-5-23.7 18.6-2.7 38.2-5.9 57.1-9.4 55.4-10.3 111-25.5 148.7-40.6 4.1-1.6 6.1-6.3 4.4-10.4-1.6-4.1-6.3-6.1-10.4-4.4-36.8 14.8-91.2 29.6-145.7 39.8-18.7 3.5-37.9 6.6-56.2 9.3-.7-7.3-1-14.8-1-22.2v-1.3c8.9-1.2 22.8-3.3 40.9-6.4 30.7-5.2 74.1-13.9 107-25.7a7.971 7.971 0 0 0-5.4-15c-31.8 11.4-74.3 19.8-104.4 25-16.2 2.8-28.8 4.7-37.6 5.9a242.31 242.31 0 0 1 3-24.2l22.2-3.2c19.4-3.1 48.2-8.6 71-15 4.3-1.2 6.7-5.6 5.5-9.9s-5.6-6.7-9.9-5.5c-22.1 6.2-50.3 11.6-69.2 14.6l-16.2 2.4c2.1-8.5 4.7-16.9 7.8-25.1 16.2-2.4 37.7-6 55.6-10.5 4.3-1.1 6.9-5.4 5.8-9.7s-5.4-6.9-9.7-5.8c-14.3 3.5-31.2 6.6-44.5 8.7 12-25.3 28.1-48.4 48.2-68.5zm338 338c-45.1 45.1-105.2 70-169 70-38.2 0-74.9-8.9-108-25.7 17.8-4.2 33.3-8.6 46.4-13.2 4.2-1.5 6.4-6 4.9-10.2s-6-6.4-10.2-4.9c-16.6 5.8-37.4 11.3-61.8 16.5-8.4-5.4-16.5-11.3-24.3-17.8 26.2-5.8 51.7-12.8 71.7-19.9 4.2-1.5 6.3-6 4.9-10.2s-6-6.3-10.2-4.9c-22.2 7.9-51.5 15.7-80.9 21.7-.5-.5-1-1-1.5-1.4-6-6-11.7-12.3-17-18.9 38.3-7.2 77.8-17.1 107.8-27 4.2-1.4 6.5-5.9 5.1-10.1s-5.9-6.5-10.1-5.1c-36.6 12.1-81.6 22.2-113.5 27.9-4.9-7-9.3-14.3-13.4-21.7 33.6-5.7 108-19.9 163.6-40.7 4.1-1.6 6.2-6.2 4.7-10.3-1.6-4.1-6.2-6.2-10.3-4.7-57.1 21.4-135.1 35.7-165.5 40.7-3.3-7.1-6.2-14.4-8.7-21.9 41.6-6.3 171.8-29.1 316-86.6 71.5-28.6 116.7-59.8 134.6-73.4C490 199.4 495 227.3 495 256c0 63.8-24.9 123.9-70 169z"/></svg>